<?xml version="1.0" encoding="iso-8859-1"?>
<!-- Generator: Adobe Illustrator 18.0.0, SVG Export Plug-In . SVG Version: 6.00 Build 0)  -->
<!DOCTYPE svg PUBLIC "-//W3C//DTD SVG 1.1//EN" "http://www.w3.org/Graphics/SVG/1.1/DTD/svg11.dtd">
<svg version="1.1" id="Capa_1" xmlns="http://www.w3.org/2000/svg" xmlns:xlink="http://www.w3.org/1999/xlink" x="0px" y="0px"
	 viewBox="0 0 57.957 57.957" style="enable-background:new 0 0 57.957 57.957;" xml:space="preserve">
<path d="M54.575,0.811c-0.078-0.406-0.399-0.723-0.808-0.794c-0.409-0.076-0.818,0.114-1.031,0.47l-2.065,3.442
	c-1.142,1.902-2.767,3.423-4.727,4.434c-4.179-4.66-10.104-7.317-16.377-7.317S17.369,3.702,13.191,8.362
	c-1.96-1.011-3.585-2.531-4.727-4.434L6.399,0.486C6.186,0.131,5.777-0.06,5.367,0.017C4.959,0.088,4.638,0.404,4.56,0.811
	C4.478,1.234,2.685,10.923,8.865,15.63c-0.861,2.396-1.298,4.888-1.298,7.415c0,0.184,0.009,0.366,0.014,0.549
	c-4.842,5.94-5.867,13.557-2.648,19.97c2.999,5.974,9.023,9.435,16.29,9.435c0.039,0,0.078-0.003,0.117-0.004l-0.753,3.766
	c-0.073,0.368,0.064,0.746,0.358,0.979c0.181,0.143,0.4,0.217,0.622,0.217c0.141,0,0.281-0.029,0.414-0.09l11-5
	c0.356-0.162,0.586-0.518,0.586-0.91s-0.229-0.748-0.586-0.91l-11-5c-0.343-0.156-0.741-0.107-1.036,0.127
	c-0.294,0.233-0.432,0.611-0.358,0.979l0.768,3.839c-6.557,0.033-11.969-3.018-14.634-8.326c-2.555-5.09-2.085-11.058,1.138-16.067
	c1.705,10.446,10.788,18.446,21.709,18.446c12.131,0,22-9.869,22-22c0-2.527-0.437-5.019-1.298-7.415
	C56.45,10.923,54.657,1.234,54.575,0.811z M32.704,15.218l2.358-4.032l3.708-0.14c0.568-0.051,1.017,0.409,1.037,0.961
	c0.021,0.553-0.409,1.017-0.961,1.037l-2.612,0.099l-1.804,3.085c-0.187,0.318-0.521,0.495-0.864,0.495
	c-0.172,0-0.345-0.044-0.504-0.137C32.586,16.307,32.426,15.694,32.704,15.218z M19.325,11.045c0.013,0,0.025,0,0.039,0.001
	l3.708,0.14l2.358,4.032c0.278,0.477,0.118,1.089-0.358,1.368c-0.159,0.093-0.332,0.137-0.504,0.137
	c-0.344,0-0.678-0.177-0.864-0.495L21.9,13.143l-2.612-0.099c-0.552-0.021-0.982-0.484-0.961-1.037
	C18.348,11.468,18.791,11.045,19.325,11.045z M19.067,22.045c-1.933,0-3.5-1.567-3.5-3.5s1.567-3.5,3.5-3.5s3.5,1.567,3.5,3.5
	S21,22.045,19.067,22.045z M36.167,36.045c-0.553,0-1-0.447-1-1c0-1.179-2.951-2-5.6-2s-5.6,0.821-5.6,2c0,0.553-0.447,1-1,1
	s-1-0.447-1-1c0-3.157,4.777-4,7.6-4s7.6,0.843,7.6,4C37.167,35.598,36.72,36.045,36.167,36.045z M39.067,22.045
	c-1.933,0-3.5-1.567-3.5-3.5s1.567-3.5,3.5-3.5s3.5,1.567,3.5,3.5S41,22.045,39.067,22.045z"/>
<g>
</g>
<g>
</g>
<g>
</g>
<g>
</g>
<g>
</g>
<g>
</g>
<g>
</g>
<g>
</g>
<g>
</g>
<g>
</g>
<g>
</g>
<g>
</g>
<g>
</g>
<g>
</g>
<g>
</g>
</svg>
