<?xml version="1.0" encoding="UTF-8" standalone="no"?>
<!-- Created with Inkscape (http://www.inkscape.org/) -->

<svg
   version="1.1"
   id="svg2"
   xml:space="preserve"
   width="908.85547"
   height="908.4024"
   viewBox="0 0 908.85549 908.4024"
   sodipodi:docname="0ae41619f1b69ba0b7848bf721fb39b2.ai"
   xmlns:inkscape="http://www.inkscape.org/namespaces/inkscape"
   xmlns:sodipodi="http://sodipodi.sourceforge.net/DTD/sodipodi-0.dtd"
   xmlns="http://www.w3.org/2000/svg"
   xmlns:svg="http://www.w3.org/2000/svg"><defs
     id="defs6"><clipPath
       clipPathUnits="userSpaceOnUse"
       id="clipPath16"><path
         d="M 0,768 H 1366 V 0 H 0 Z"
         id="path14" /></clipPath><clipPath
       clipPathUnits="userSpaceOnUse"
       id="clipPath24"><path
         d="M 378.315,742.784 H 1059.96 V 61.4817 H 378.315 Z"
         id="path22" /></clipPath></defs><sodipodi:namedview
     id="namedview4"
     pagecolor="#ffffff"
     bordercolor="#666666"
     borderopacity="1.0"
     inkscape:pageshadow="2"
     inkscape:pageopacity="0.0"
     inkscape:pagecheckerboard="0" /><g
     id="g8"
     inkscape:groupmode="layer"
     inkscape:label="0ae41619f1b69ba0b7848bf721fb39b2"
     transform="matrix(1.3333333,0,0,-1.3333333,-504.41999,990.37798)"><g
       id="g10"><g
         id="g12"
         clip-path="url(#clipPath16)"><g
           id="g18"><g
             id="g20" /><g
             id="g36"><g
               clip-path="url(#clipPath24)"
               id="g34"><g
                 transform="translate(701.2256,615.3125)"
                 id="g32"><path
                   d="m 0,0 c 0.843,6.126 0.099,11.468 -3.036,16.316 -5.272,8.153 -7.224,17.32 -7.909,26.788 -0.434,5.982 -0.775,12.031 -0.399,18.003 0.845,13.435 8.953,21.56 22.383,23.086 5.797,0.658 11.579,0.367 17.28,-0.737 8.714,-1.689 13.406,-7.52 15.446,-15.776 2.159,-8.737 1.854,-17.566 0.533,-26.373 -1.559,-10.38 -4.687,-20.295 -9.254,-29.752 -0.17,-0.351 -0.38,-0.737 -0.383,-1.107 -0.027,-4.019 -0.016,-8.038 -0.016,-12.317 1.811,0.545 3.445,0.966 5.03,1.524 31.203,10.988 62.429,21.913 93.59,33.018 22.889,8.159 45.818,16.233 68.503,24.934 26.549,10.183 52.791,21.165 79.295,31.468 10.279,3.996 20.893,7.14 31.396,10.543 2.941,0.953 4.144,0.15 4.258,-2.91 0.093,-2.502 -0.412,-5.043 -0.807,-7.542 -0.264,-1.682 -1.782,-2.258 -3.138,-2.833 -5.012,-2.126 -10.264,-3.128 -15.692,-3.45 -7.426,-0.441 -14.799,-1.356 -21.966,-3.437 -1.937,-0.563 -3.865,-1.363 -5.603,-2.383 C 256.75,69.574 243.735,62.459 231.407,54.31 221.635,47.85 211.273,43.063 200.304,39.302 c -4.073,-1.396 -8.08,-2.981 -12.165,-4.336 -5.086,-1.687 -9.493,-4.457 -13.654,-7.783 C 167.442,21.552 160.366,15.954 153.137,10.566 144.864,4.401 135.254,0.798 125.75,-2.889 109.591,-9.157 93.324,-15.15 77.135,-21.34 c -4.559,-1.743 -9.009,-3.804 -12.741,-7.045 -3.474,-3.016 -5.343,-6.771 -4.271,-11.471 0.994,-4.359 2.076,-8.704 3.307,-13.002 1.647,-5.753 2.705,-11.582 1.05,-17.429 -0.99,-3.499 -2.667,-6.826 -4.255,-10.125 -0.827,-1.717 -1.993,-3.324 -3.241,-4.778 -5.695,-6.635 -7.402,-14.444 -7.254,-22.95 0.349,-19.946 4.261,-39.126 11.503,-57.718 3.594,-9.226 6.918,-18.599 9.655,-28.109 3.656,-12.71 4.091,-25.853 3.426,-38.993 -0.997,-19.719 -4.507,-39.082 -9.187,-58.208 -1.945,-7.953 -4.982,-15.641 -7.546,-23.44 -3.745,-11.392 -5.603,-23.137 -6.283,-35.057 -1.53,-26.84 -6.477,-52.971 -16.06,-78.129 -1.717,-4.507 -2.471,-9.107 -2.58,-13.788 -0.226,-9.805 -0.281,-19.621 -0.032,-29.424 0.102,-3.985 1.284,-7.931 1.793,-11.919 1.625,-12.744 2.282,-25.555 1.789,-38.383 -0.256,-6.669 -3.396,-11.935 -9.656,-14.897 -0.844,-0.399 -1.978,-0.499 -2.91,-0.343 -4.837,0.811 -7.996,3.748 -9.896,8.164 -2.015,4.682 -2.021,9.709 -2.658,14.651 -1.122,8.706 0.927,17.022 2.523,25.422 2.079,10.94 3.551,21.948 3.346,33.12 -0.195,10.61 -2.251,20.798 -6.677,30.503 -3.596,7.885 -7.022,15.848 -10.48,23.796 -1.926,4.427 -2.756,9.053 -2.678,13.91 0.232,14.424 -0.483,28.81 -2.032,43.157 -0.96,8.888 -3.444,17.308 -7.386,25.323 -2.125,4.322 -4.073,8.731 -6.226,13.038 -4.564,9.13 -6.895,18.919 -8.681,28.872 -3.732,20.795 -6.116,41.743 -6.893,62.859 -0.355,9.643 1.795,18.945 4.514,28.093 4.067,13.682 8.614,27.225 12.489,40.959 4.29,15.204 4.571,30.564 -0.089,45.803 -0.752,2.459 -1.982,4.814 -3.27,7.058 -3.766,6.562 -6.87,13.394 -9.223,20.591 -1.476,4.516 -0.975,8.913 0.056,13.397 1.244,5.409 2.358,10.851 3.395,16.303 0.304,1.595 0.245,3.279 0.188,4.917 -0.072,2.104 -1.049,3.888 -2.726,5.084 -2.53,1.805 -5.102,3.604 -7.838,5.065 -16.296,8.705 -32.72,17.173 -48.951,25.999 -11.451,6.226 -22.679,12.862 -33.968,19.384 -2.102,1.214 -4.061,2.695 -6.01,4.154 -3.652,2.734 -7.854,4.252 -12.123,5.624 -2.211,0.71 -4.425,1.464 -6.693,1.929 -9.024,1.851 -17.067,5.959 -24.939,10.527 -18.651,10.824 -36.497,22.9 -54.524,34.705 -5.227,3.423 -10.979,6.16 -16.755,8.579 -2.751,1.153 -6.117,0.891 -9.215,1.15 -5.988,0.5 -12.017,0.659 -17.967,1.434 -6.479,0.843 -10.113,6.51 -8.786,12.938 0.576,2.791 3.763,4.188 7.007,3.004 1.274,-0.465 2.497,-1.075 3.726,-1.656 34.456,-16.281 70.216,-29.406 105.531,-43.607 9.198,-3.699 18.434,-7.304 27.642,-10.975 1.259,-0.502 2.423,-1.256 3.699,-1.698 3.51,-1.216 7.102,-2.208 10.582,-3.5 C -82.232,28.122 -46.156,14.62 -10.002,1.332 -6.926,0.201 -3.356,0.414 0,0"
                   style="fill:#000000;fill-opacity:1;fill-rule:nonzero;stroke:none"
                   id="path30" /></g></g></g></g></g></g></g></svg>
